<?xml version="1.0" encoding="UTF-8" standalone="no"?>
<!DOCTYPE svg PUBLIC "-//W3C//DTD SVG 1.1//EN"
 "http://www.w3.org/Graphics/SVG/1.1/DTD/svg11.dtd">
<!-- Generated by graphviz version 2.42.3 (20191010.1750)
 -->
<!-- Title: classes_ortho2align Pages: 1 -->
<svg width="4640pt" height="1025pt"
 viewBox="0.00 0.00 4639.50 1025.00" xmlns="http://www.w3.org/2000/svg" xmlns:xlink="http://www.w3.org/1999/xlink">
<g id="graph0" class="graph" transform="scale(1 1) rotate(0) translate(4 1021)">
<title>classes_ortho2align</title>
<polygon fill="white" stroke="transparent" points="-4,4 -4,-1021 4635.5,-1021 4635.5,4 -4,4"/>
<!-- 0 -->
<g id="node1" class="node">
<title>0</title>
<polygon fill="none" stroke="black" points="76,-339 76,-468 196,-468 196,-339 76,-339"/>
<text text-anchor="middle" x="136" y="-452.8" font-family="Times,serif" font-size="14.00">AbstractFitter</text>
<polyline fill="none" stroke="black" points="76,-445 196,-445 "/>
<text text-anchor="start" x="84" y="-429.8" font-family="Times,serif" font-size="14.00">estimator</text>
<polyline fill="none" stroke="black" points="76,-422 196,-422 "/>
<text text-anchor="start" x="84" y="-406.8" font-family="Times,serif" font-size="14.00">cdf(data)</text>
<text text-anchor="start" x="84" y="-391.8" font-family="Times,serif" font-size="14.00">isf(data)</text>
<text text-anchor="start" x="84" y="-376.8" font-family="Times,serif" font-size="14.00">pdf(data)</text>
<text text-anchor="start" x="84" y="-361.8" font-family="Times,serif" font-size="14.00">ppf(data)</text>
<text text-anchor="start" x="84" y="-346.8" font-family="Times,serif" font-size="14.00">sf(data)</text>
</g>
<!-- 1 -->
<g id="node2" class="node">
<title>1</title>
<polygon fill="none" stroke="black" points="295.5,-241.5 295.5,-565.5 764.5,-565.5 764.5,-241.5 295.5,-241.5"/>
<text text-anchor="middle" x="530" y="-550.3" font-family="Times,serif" font-size="14.00">Alignment</text>
<polyline fill="none" stroke="black" points="295.5,-542.5 764.5,-542.5 "/>
<text text-anchor="start" x="303.5" y="-527.3" font-family="Times,serif" font-size="14.00">HSPs</text>
<text text-anchor="start" x="303.5" y="-512.3" font-family="Times,serif" font-size="14.00">filtered : bool</text>
<text text-anchor="start" x="303.5" y="-497.3" font-family="Times,serif" font-size="14.00">qlen</text>
<text text-anchor="start" x="303.5" y="-482.3" font-family="Times,serif" font-size="14.00">replace_dict : dict</text>
<text text-anchor="start" x="303.5" y="-467.3" font-family="Times,serif" font-size="14.00">slen</text>
<text text-anchor="start" x="303.5" y="-452.3" font-family="Times,serif" font-size="14.00">transcript_class</text>
<polyline fill="none" stroke="black" points="295.5,-444.5 764.5,-444.5 "/>
<text text-anchor="start" x="303.5" y="-429.3" font-family="Times,serif" font-size="14.00">best_transcript()</text>
<text text-anchor="start" x="303.5" y="-414.3" font-family="Times,serif" font-size="14.00">cut_coordinates(qleft, qright, sleft, sright)</text>
<text text-anchor="start" x="303.5" y="-399.3" font-family="Times,serif" font-size="14.00">filter_by_array(array, score, side)</text>
<text text-anchor="start" x="303.5" y="-384.3" font-family="Times,serif" font-size="14.00">filter_by_function_score(function, score, side)</text>
<text text-anchor="start" x="303.5" y="-369.3" font-family="Times,serif" font-size="14.00">filter_by_score(score, side)</text>
<text text-anchor="start" x="303.5" y="-354.3" font-family="Times,serif" font-size="14.00">from_dict(cls, dict_)</text>
<text text-anchor="start" x="303.5" y="-339.3" font-family="Times,serif" font-size="14.00">from_file_blast(cls, file_object, start_type, end_type)</text>
<text text-anchor="start" x="303.5" y="-324.3" font-family="Times,serif" font-size="14.00">get_all_transcripts()</text>
<text text-anchor="start" x="303.5" y="-309.3" font-family="Times,serif" font-size="14.00">get_best_transcripts()</text>
<text text-anchor="start" x="303.5" y="-294.3" font-family="Times,serif" font-size="14.00">plot_alignment(qleft, qright, sleft, sright, main_color, all_color)</text>
<text text-anchor="start" x="303.5" y="-279.3" font-family="Times,serif" font-size="14.00">reset_filter_by_score()</text>
<text text-anchor="start" x="303.5" y="-264.3" font-family="Times,serif" font-size="14.00">set_zero(qzero, szero)</text>
<text text-anchor="start" x="303.5" y="-249.3" font-family="Times,serif" font-size="14.00">to_dict()</text>
</g>
<!-- 2 -->
<g id="node3" class="node">
<title>2</title>
<polygon fill="none" stroke="black" points="804,-45.5 804,-144.5 990,-144.5 990,-45.5 804,-45.5"/>
<text text-anchor="middle" x="897" y="-129.3" font-family="Times,serif" font-size="14.00">CLIVerbose</text>
<polyline fill="none" stroke="black" points="804,-121.5 990,-121.5 "/>
<text text-anchor="start" x="812" y="-106.3" font-family="Times,serif" font-size="14.00">inmessage</text>
<text text-anchor="start" x="812" y="-91.3" font-family="Times,serif" font-size="14.00">outmessage</text>
<text text-anchor="start" x="812" y="-76.3" font-family="Times,serif" font-size="14.00">target : TextIOWrapper</text>
<polyline fill="none" stroke="black" points="804,-68.5 990,-68.5 "/>
<text text-anchor="middle" x="897" y="-53.3" font-family="Times,serif" font-size="14.00"> </text>
</g>
<!-- 3 -->
<g id="node4" class="node">
<title>3</title>
<polygon fill="none" stroke="black" points="1007.5,-45.5 1007.5,-144.5 1228.5,-144.5 1228.5,-45.5 1007.5,-45.5"/>
<text text-anchor="middle" x="1118" y="-129.3" font-family="Times,serif" font-size="14.00" fill="red">ChromosomeNotFoundError</text>
<polyline fill="none" stroke="black" points="1007.5,-121.5 1228.5,-121.5 "/>
<text text-anchor="start" x="1015.5" y="-106.3" font-family="Times,serif" font-size="14.00" fill="red">chrom</text>
<text text-anchor="start" x="1015.5" y="-91.3" font-family="Times,serif" font-size="14.00" fill="red">genome</text>
<text text-anchor="start" x="1015.5" y="-76.3" font-family="Times,serif" font-size="14.00" fill="red">list_of_chroms</text>
<polyline fill="none" stroke="black" points="1007.5,-68.5 1228.5,-68.5 "/>
<text text-anchor="middle" x="1118" y="-53.3" font-family="Times,serif" font-size="14.00" fill="red"> </text>
</g>
<!-- 9 -->
<g id="node10" class="node">
<title>9</title>
<polygon fill="none" stroke="black" points="1766,-368.5 1766,-438.5 1918,-438.5 1918,-368.5 1766,-368.5"/>
<text text-anchor="middle" x="1842" y="-423.3" font-family="Times,serif" font-size="14.00" fill="red">GenomicException</text>
<polyline fill="none" stroke="black" points="1766,-415.5 1918,-415.5 "/>
<polyline fill="none" stroke="black" points="1766,-391.5 1918,-391.5 "/>
<text text-anchor="middle" x="1842" y="-376.3" font-family="Times,serif" font-size="14.00" fill="red"> </text>
</g>
<!-- 3&#45;&gt;9 -->
<g id="edge1" class="edge">
<title>3&#45;&gt;9</title>
<path fill="none" stroke="black" d="M1172.42,-144.73C1192.11,-160.67 1215.14,-177.47 1238,-190 1411.27,-284.97 1635.12,-350.51 1755.77,-381.7"/>
<polygon fill="none" stroke="black" points="1755.15,-385.15 1765.7,-384.25 1756.89,-378.37 1755.15,-385.15"/>
</g>
<!-- 4 -->
<g id="node5" class="node">
<title>4</title>
<polygon fill="none" stroke="black" points="1247,-60.5 1247,-129.5 1493,-129.5 1493,-60.5 1247,-60.5"/>
<text text-anchor="middle" x="1370" y="-114.3" font-family="Times,serif" font-size="14.00" fill="red">EmptyGenomicRangesListError</text>
<polyline fill="none" stroke="black" points="1247,-106.5 1493,-106.5 "/>
<text text-anchor="start" x="1255" y="-91.3" font-family="Times,serif" font-size="14.00" fill="red">range_list</text>
<polyline fill="none" stroke="black" points="1247,-83.5 1493,-83.5 "/>
<text text-anchor="middle" x="1370" y="-68.3" font-family="Times,serif" font-size="14.00" fill="red"> </text>
</g>
<!-- 4&#45;&gt;9 -->
<g id="edge2" class="edge">
<title>4&#45;&gt;9</title>
<path fill="none" stroke="black" d="M1415.65,-129.53C1440.85,-147.79 1472.87,-170.55 1502,-190 1595.96,-252.74 1707.45,-321.34 1776.47,-363.15"/>
<polygon fill="none" stroke="black" points="1774.72,-366.19 1785.09,-368.37 1778.34,-360.2 1774.72,-366.19"/>
</g>
<!-- 5 -->
<g id="node6" class="node">
<title>5</title>
<polygon fill="none" stroke="black" points="2494.5,-331.5 2494.5,-475.5 2931.5,-475.5 2931.5,-331.5 2494.5,-331.5"/>
<text text-anchor="middle" x="2713" y="-460.3" font-family="Times,serif" font-size="14.00">FastaSeqFile</text>
<polyline fill="none" stroke="black" points="2494.5,-452.5 2931.5,-452.5 "/>
<text text-anchor="start" x="2502.5" y="-437.3" font-family="Times,serif" font-size="14.00">chromsizes</text>
<text text-anchor="start" x="2502.5" y="-422.3" font-family="Times,serif" font-size="14.00">line_length</text>
<text text-anchor="start" x="2502.5" y="-407.3" font-family="Times,serif" font-size="14.00">sequence_file_path</text>
<polyline fill="none" stroke="black" points="2494.5,-399.5 2931.5,-399.5 "/>
<text text-anchor="start" x="2502.5" y="-384.3" font-family="Times,serif" font-size="14.00">from_dict(cls, dict_)</text>
<text text-anchor="start" x="2502.5" y="-369.3" font-family="Times,serif" font-size="14.00">get_fasta_by_coord(grange, outfile, chromsizes, linewidth)</text>
<text text-anchor="start" x="2502.5" y="-354.3" font-family="Times,serif" font-size="14.00">locate_coordinate(chrom_start, coord)</text>
<text text-anchor="start" x="2502.5" y="-339.3" font-family="Times,serif" font-size="14.00">to_dict()</text>
</g>
<!-- 12 -->
<g id="node13" class="node">
<title>12</title>
<polygon fill="none" stroke="black" points="2714,-617.5 2714,-1016.5 3820,-1016.5 3820,-617.5 2714,-617.5"/>
<text text-anchor="middle" x="3267" y="-1001.3" font-family="Times,serif" font-size="14.00">GenomicRangesList</text>
<polyline fill="none" stroke="black" points="2714,-993.5 3820,-993.5 "/>
<text text-anchor="start" x="2722" y="-978.3" font-family="Times,serif" font-size="14.00">column_names : dict</text>
<text text-anchor="start" x="2722" y="-963.3" font-family="Times,serif" font-size="14.00">comments : dict</text>
<text text-anchor="start" x="2722" y="-948.3" font-family="Times,serif" font-size="14.00">dtypes : dict</text>
<text text-anchor="start" x="2722" y="-933.3" font-family="Times,serif" font-size="14.00">end_types : dict</text>
<text text-anchor="start" x="2722" y="-918.3" font-family="Times,serif" font-size="14.00">fileformats : list</text>
<text text-anchor="start" x="2722" y="-903.3" font-family="Times,serif" font-size="14.00">name_columns : dict</text>
<text text-anchor="start" x="2722" y="-888.3" font-family="Times,serif" font-size="14.00">name_mapping</text>
<text text-anchor="start" x="2722" y="-873.3" font-family="Times,serif" font-size="14.00">name_patterns : dict</text>
<text text-anchor="start" x="2722" y="-858.3" font-family="Times,serif" font-size="14.00">seps : dict</text>
<text text-anchor="start" x="2722" y="-843.3" font-family="Times,serif" font-size="14.00">sequence_file</text>
<text text-anchor="start" x="2722" y="-828.3" font-family="Times,serif" font-size="14.00">sequence_file_path</text>
<text text-anchor="start" x="2722" y="-813.3" font-family="Times,serif" font-size="14.00">start_types : dict</text>
<polyline fill="none" stroke="black" points="2714,-805.5 3820,-805.5 "/>
<text text-anchor="start" x="2722" y="-790.3" font-family="Times,serif" font-size="14.00">close_merge(distance, verbose)</text>
<text text-anchor="start" x="2722" y="-775.3" font-family="Times,serif" font-size="14.00">flank(distance, check_boundaries, chromsizes, verbose)</text>
<text text-anchor="start" x="2722" y="-760.3" font-family="Times,serif" font-size="14.00">from_dict(cls, dict_)</text>
<text text-anchor="start" x="2722" y="-745.3" font-family="Times,serif" font-size="14.00">get_fasta(outfileprefix, mode, chromsizes, verbose)</text>
<text text-anchor="start" x="2722" y="-730.3" font-family="Times,serif" font-size="14.00">get_neighbours(other, distance, relation, verbose)</text>
<text text-anchor="start" x="2722" y="-715.3" font-family="Times,serif" font-size="14.00">inter_ranges(distance, verbose)</text>
<text text-anchor="start" x="2722" y="-700.3" font-family="Times,serif" font-size="14.00">key_func(cls, grange)</text>
<text text-anchor="start" x="2722" y="-685.3" font-family="Times,serif" font-size="14.00">merge(distance, verbose)</text>
<text text-anchor="start" x="2722" y="-670.3" font-family="Times,serif" font-size="14.00">parse_annotation(cls, fileobj, fileformat, sequence_file_path, column_names, dtypes, name_column, name_pattern, comment, sep, start_type, end_type)</text>
<text text-anchor="start" x="2722" y="-655.3" font-family="Times,serif" font-size="14.00">relation_mapping(other, mapping, relation, verbose)</text>
<text text-anchor="start" x="2722" y="-640.3" font-family="Times,serif" font-size="14.00">to_bed6(fileobj)</text>
<text text-anchor="start" x="2722" y="-625.3" font-family="Times,serif" font-size="14.00">to_dict()</text>
</g>
<!-- 5&#45;&gt;12 -->
<g id="edge13" class="edge">
<title>5&#45;&gt;12</title>
<path fill="none" stroke="black" d="M2808.87,-475.71C2859.53,-513.34 2924.6,-561.67 2989.68,-610.01"/>
<polygon fill="black" stroke="black" points="2990.07,-610.3 2997.27,-610.67 2999.7,-617.46 2992.5,-617.09 2990.07,-610.3"/>
<text text-anchor="middle" x="3023" y="-587.8" font-family="Times,serif" font-size="14.00" fill="green">sequence_file</text>
</g>
<!-- 6 -->
<g id="node7" class="node">
<title>6</title>
<polygon fill="none" stroke="black" points="3326,-53 3326,-137 3504,-137 3504,-53 3326,-53"/>
<text text-anchor="middle" x="3415" y="-121.8" font-family="Times,serif" font-size="14.00">FileOperationWrapper</text>
<polyline fill="none" stroke="black" points="3326,-114 3504,-114 "/>
<text text-anchor="start" x="3334" y="-98.8" font-family="Times,serif" font-size="14.00">file_dict : dict</text>
<text text-anchor="start" x="3334" y="-83.8" font-family="Times,serif" font-size="14.00">prefix</text>
<polyline fill="none" stroke="black" points="3326,-76 3504,-76 "/>
<text text-anchor="middle" x="3415" y="-60.8" font-family="Times,serif" font-size="14.00"> </text>
</g>
<!-- 7 -->
<g id="node8" class="node">
<title>7</title>
<polygon fill="none" stroke="black" points="1511.5,-60.5 1511.5,-129.5 1720.5,-129.5 1720.5,-60.5 1511.5,-60.5"/>
<text text-anchor="middle" x="1616" y="-114.3" font-family="Times,serif" font-size="14.00" fill="red">FilePathNotSpecifiedError</text>
<polyline fill="none" stroke="black" points="1511.5,-106.5 1720.5,-106.5 "/>
<text text-anchor="start" x="1519.5" y="-91.3" font-family="Times,serif" font-size="14.00" fill="red">instance</text>
<polyline fill="none" stroke="black" points="1511.5,-83.5 1720.5,-83.5 "/>
<text text-anchor="middle" x="1616" y="-68.3" font-family="Times,serif" font-size="14.00" fill="red"> </text>
</g>
<!-- 7&#45;&gt;9 -->
<g id="edge3" class="edge">
<title>7&#45;&gt;9</title>
<path fill="none" stroke="black" d="M1640.83,-129.68C1682.23,-185.82 1765.26,-298.43 1810.64,-359.97"/>
<polygon fill="none" stroke="black" points="1808.03,-362.33 1816.78,-368.3 1813.66,-358.17 1808.03,-362.33"/>
</g>
<!-- 8 -->
<g id="node9" class="node">
<title>8</title>
<polygon fill="none" stroke="black" points="1739,-53 1739,-137 1945,-137 1945,-53 1739,-53"/>
<text text-anchor="middle" x="1842" y="-121.8" font-family="Times,serif" font-size="14.00" fill="red">GenomicCoordinatesError</text>
<polyline fill="none" stroke="black" points="1739,-114 1945,-114 "/>
<text text-anchor="start" x="1747" y="-98.8" font-family="Times,serif" font-size="14.00" fill="red">chromosome</text>
<text text-anchor="start" x="1747" y="-83.8" font-family="Times,serif" font-size="14.00" fill="red">grange</text>
<polyline fill="none" stroke="black" points="1739,-76 1945,-76 "/>
<text text-anchor="middle" x="1842" y="-60.8" font-family="Times,serif" font-size="14.00" fill="red"> </text>
</g>
<!-- 8&#45;&gt;9 -->
<g id="edge4" class="edge">
<title>8&#45;&gt;9</title>
<path fill="none" stroke="black" d="M1842,-137.02C1842,-194.57 1842,-298.87 1842,-358.16"/>
<polygon fill="none" stroke="black" points="1838.5,-358.33 1842,-368.33 1845.5,-358.33 1838.5,-358.33"/>
</g>
<!-- 10 -->
<g id="node11" class="node">
<title>10</title>
<polygon fill="none" stroke="black" points="2949.5,-264 2949.5,-543 3230.5,-543 3230.5,-264 2949.5,-264"/>
<text text-anchor="middle" x="3090" y="-527.8" font-family="Times,serif" font-size="14.00">GenomicRange</text>
<polyline fill="none" stroke="black" points="2949.5,-520 3230.5,-520 "/>
<text text-anchor="start" x="2957.5" y="-504.8" font-family="Times,serif" font-size="14.00">chrom</text>
<text text-anchor="start" x="2957.5" y="-489.8" font-family="Times,serif" font-size="14.00">end</text>
<text text-anchor="start" x="2957.5" y="-474.8" font-family="Times,serif" font-size="14.00">genome : NoneType</text>
<text text-anchor="start" x="2957.5" y="-459.8" font-family="Times,serif" font-size="14.00">name</text>
<text text-anchor="start" x="2957.5" y="-444.8" font-family="Times,serif" font-size="14.00">relations : NoneType, dict</text>
<text text-anchor="start" x="2957.5" y="-429.8" font-family="Times,serif" font-size="14.00">sequence_file_path</text>
<text text-anchor="start" x="2957.5" y="-414.8" font-family="Times,serif" font-size="14.00">sequence_header</text>
<text text-anchor="start" x="2957.5" y="-399.8" font-family="Times,serif" font-size="14.00">start</text>
<text text-anchor="start" x="2957.5" y="-384.8" font-family="Times,serif" font-size="14.00">strand : str</text>
<polyline fill="none" stroke="black" points="2949.5,-377 3230.5,-377 "/>
<text text-anchor="start" x="2957.5" y="-361.8" font-family="Times,serif" font-size="14.00">align_blast(other, program, task)</text>
<text text-anchor="start" x="2957.5" y="-346.8" font-family="Times,serif" font-size="14.00">distance(other)</text>
<text text-anchor="start" x="2957.5" y="-331.8" font-family="Times,serif" font-size="14.00">find_neighbours(other_list, distance)</text>
<text text-anchor="start" x="2957.5" y="-316.8" font-family="Times,serif" font-size="14.00">flank(flank_distance)</text>
<text text-anchor="start" x="2957.5" y="-301.8" font-family="Times,serif" font-size="14.00">from_dict(cls, dict_)</text>
<text text-anchor="start" x="2957.5" y="-286.8" font-family="Times,serif" font-size="14.00">merge(other)</text>
<text text-anchor="start" x="2957.5" y="-271.8" font-family="Times,serif" font-size="14.00">to_dict()</text>
</g>
<!-- 11 -->
<g id="node12" class="node">
<title>11</title>
<polygon fill="none" stroke="black" points="274.5,-0.5 274.5,-189.5 785.5,-189.5 785.5,-0.5 274.5,-0.5"/>
<text text-anchor="middle" x="530" y="-174.3" font-family="Times,serif" font-size="14.00">GenomicRangesAlignment</text>
<polyline fill="none" stroke="black" points="274.5,-166.5 785.5,-166.5 "/>
<text text-anchor="start" x="282.5" y="-151.3" font-family="Times,serif" font-size="14.00">qrange</text>
<text text-anchor="start" x="282.5" y="-136.3" font-family="Times,serif" font-size="14.00">relative : bool</text>
<text text-anchor="start" x="282.5" y="-121.3" font-family="Times,serif" font-size="14.00">srange</text>
<text text-anchor="start" x="282.5" y="-106.3" font-family="Times,serif" font-size="14.00">transcript_class</text>
<polyline fill="none" stroke="black" points="274.5,-98.5 785.5,-98.5 "/>
<text text-anchor="start" x="282.5" y="-83.3" font-family="Times,serif" font-size="14.00">cut_coordinates(qleft, qright, sleft, sright)</text>
<text text-anchor="start" x="282.5" y="-68.3" font-family="Times,serif" font-size="14.00">from_dict(cls, dict_)</text>
<text text-anchor="start" x="282.5" y="-53.3" font-family="Times,serif" font-size="14.00">from_file_blast(cls, file_object, qrange, srange, start_type, end_type)</text>
<text text-anchor="start" x="282.5" y="-38.3" font-family="Times,serif" font-size="14.00">to_dict()</text>
<text text-anchor="start" x="282.5" y="-23.3" font-family="Times,serif" font-size="14.00">to_genomic()</text>
<text text-anchor="start" x="282.5" y="-8.3" font-family="Times,serif" font-size="14.00">to_relative()</text>
</g>
<!-- 11&#45;&gt;1 -->
<g id="edge5" class="edge">
<title>11&#45;&gt;1</title>
<path fill="none" stroke="black" d="M530,-189.63C530,-202.87 530,-216.82 530,-230.98"/>
<polygon fill="none" stroke="black" points="526.5,-231.32 530,-241.32 533.5,-231.32 526.5,-231.32"/>
</g>
<!-- 13 -->
<g id="node14" class="node">
<title>13</title>
<polygon fill="none" stroke="black" points="3631,-52.5 3631,-137.5 3839,-137.5 3839,-52.5 3631,-52.5"/>
<text text-anchor="middle" x="3735" y="-122.3" font-family="Times,serif" font-size="14.00">GenomicRangesTranscript</text>
<polyline fill="none" stroke="black" points="3631,-114.5 3839,-114.5 "/>
<polyline fill="none" stroke="black" points="3631,-90.5 3839,-90.5 "/>
<text text-anchor="start" x="3639" y="-75.3" font-family="Times,serif" font-size="14.00">from_dict(cls, dict_)</text>
<text text-anchor="start" x="3639" y="-60.3" font-family="Times,serif" font-size="14.00">to_bed12(mode)</text>
</g>
<!-- 24 -->
<g id="node25" class="node">
<title>24</title>
<polygon fill="none" stroke="black" points="3611,-339 3611,-468 3859,-468 3859,-339 3611,-339"/>
<text text-anchor="middle" x="3735" y="-452.8" font-family="Times,serif" font-size="14.00">Transcript</text>
<polyline fill="none" stroke="black" points="3611,-445 3859,-445 "/>
<text text-anchor="start" x="3619" y="-429.8" font-family="Times,serif" font-size="14.00">HSPs</text>
<text text-anchor="start" x="3619" y="-414.8" font-family="Times,serif" font-size="14.00">alignment</text>
<text text-anchor="start" x="3619" y="-399.8" font-family="Times,serif" font-size="14.00">score</text>
<polyline fill="none" stroke="black" points="3611,-392 3859,-392 "/>
<text text-anchor="start" x="3619" y="-376.8" font-family="Times,serif" font-size="14.00">from_dict(cls, dict_)</text>
<text text-anchor="start" x="3619" y="-361.8" font-family="Times,serif" font-size="14.00">plot_transcript(color, link_color)</text>
<text text-anchor="start" x="3619" y="-346.8" font-family="Times,serif" font-size="14.00">to_dict()</text>
</g>
<!-- 13&#45;&gt;24 -->
<g id="edge6" class="edge">
<title>13&#45;&gt;24</title>
<path fill="none" stroke="black" d="M3735,-137.65C3735,-186.63 3735,-268.8 3735,-328.65"/>
<polygon fill="none" stroke="black" points="3731.5,-328.81 3735,-338.81 3738.5,-328.81 3731.5,-328.81"/>
</g>
<!-- 14 -->
<g id="node15" class="node">
<title>14</title>
<polygon fill="none" stroke="black" points="3877,-271.5 3877,-535.5 4155,-535.5 4155,-271.5 3877,-271.5"/>
<text text-anchor="middle" x="4016" y="-520.3" font-family="Times,serif" font-size="14.00">HSP</text>
<polyline fill="none" stroke="black" points="3877,-512.5 4155,-512.5 "/>
<text text-anchor="start" x="3885" y="-497.3" font-family="Times,serif" font-size="14.00">kwargs : dict</text>
<text text-anchor="start" x="3885" y="-482.3" font-family="Times,serif" font-size="14.00">orientation</text>
<text text-anchor="start" x="3885" y="-467.3" font-family="Times,serif" font-size="14.00">orientation_dict : dict</text>
<text text-anchor="start" x="3885" y="-452.3" font-family="Times,serif" font-size="14.00">qend</text>
<text text-anchor="start" x="3885" y="-437.3" font-family="Times,serif" font-size="14.00">qstart</text>
<text text-anchor="start" x="3885" y="-422.3" font-family="Times,serif" font-size="14.00">qstrand</text>
<text text-anchor="start" x="3885" y="-407.3" font-family="Times,serif" font-size="14.00">score</text>
<text text-anchor="start" x="3885" y="-392.3" font-family="Times,serif" font-size="14.00">send</text>
<text text-anchor="start" x="3885" y="-377.3" font-family="Times,serif" font-size="14.00">sstart</text>
<text text-anchor="start" x="3885" y="-362.3" font-family="Times,serif" font-size="14.00">sstrand</text>
<polyline fill="none" stroke="black" points="3877,-354.5 4155,-354.5 "/>
<text text-anchor="start" x="3885" y="-339.3" font-family="Times,serif" font-size="14.00">copy()</text>
<text text-anchor="start" x="3885" y="-324.3" font-family="Times,serif" font-size="14.00">distance(other, gapopen, gapextend)</text>
<text text-anchor="start" x="3885" y="-309.3" font-family="Times,serif" font-size="14.00">from_dict(cls, dict_)</text>
<text text-anchor="start" x="3885" y="-294.3" font-family="Times,serif" font-size="14.00">precede(other)</text>
<text text-anchor="start" x="3885" y="-279.3" font-family="Times,serif" font-size="14.00">to_dict()</text>
</g>
<!-- 15 -->
<g id="node16" class="node">
<title>15</title>
<polygon fill="none" stroke="black" points="3929,-15.5 3929,-174.5 4103,-174.5 4103,-15.5 3929,-15.5"/>
<text text-anchor="middle" x="4016" y="-159.3" font-family="Times,serif" font-size="14.00">HSPVertex</text>
<polyline fill="none" stroke="black" points="3929,-151.5 4103,-151.5 "/>
<text text-anchor="start" x="3937" y="-136.3" font-family="Times,serif" font-size="14.00">best_prev : NoneType</text>
<text text-anchor="start" x="3937" y="-121.3" font-family="Times,serif" font-size="14.00">next_vertices : list</text>
<text text-anchor="start" x="3937" y="-106.3" font-family="Times,serif" font-size="14.00">qend</text>
<text text-anchor="start" x="3937" y="-91.3" font-family="Times,serif" font-size="14.00">qstart</text>
<text text-anchor="start" x="3937" y="-76.3" font-family="Times,serif" font-size="14.00">send</text>
<text text-anchor="start" x="3937" y="-61.3" font-family="Times,serif" font-size="14.00">sstart</text>
<text text-anchor="start" x="3937" y="-46.3" font-family="Times,serif" font-size="14.00">total_score : float</text>
<polyline fill="none" stroke="black" points="3929,-38.5 4103,-38.5 "/>
<text text-anchor="middle" x="4016" y="-23.3" font-family="Times,serif" font-size="14.00"> </text>
</g>
<!-- 15&#45;&gt;14 -->
<g id="edge7" class="edge">
<title>15&#45;&gt;14</title>
<path fill="none" stroke="black" d="M4016,-174.53C4016,-200.99 4016,-231.37 4016,-261.15"/>
<polygon fill="none" stroke="black" points="4012.5,-261.22 4016,-271.22 4019.5,-261.22 4012.5,-261.22"/>
</g>
<!-- 16 -->
<g id="node17" class="node">
<title>16</title>
<polygon fill="none" stroke="black" points="0,-15.5 0,-174.5 134,-174.5 134,-15.5 0,-15.5"/>
<text text-anchor="middle" x="67" y="-159.3" font-family="Times,serif" font-size="14.00">HistogramFitter</text>
<polyline fill="none" stroke="black" points="0,-151.5 134,-151.5 "/>
<text text-anchor="start" x="8" y="-136.3" font-family="Times,serif" font-size="14.00">data</text>
<text text-anchor="start" x="8" y="-121.3" font-family="Times,serif" font-size="14.00">estimator</text>
<text text-anchor="start" x="8" y="-106.3" font-family="Times,serif" font-size="14.00">hist</text>
<polyline fill="none" stroke="black" points="0,-98.5 134,-98.5 "/>
<text text-anchor="start" x="8" y="-83.3" font-family="Times,serif" font-size="14.00">cdf(data)</text>
<text text-anchor="start" x="8" y="-68.3" font-family="Times,serif" font-size="14.00">isf(data)</text>
<text text-anchor="start" x="8" y="-53.3" font-family="Times,serif" font-size="14.00">pdf(data)</text>
<text text-anchor="start" x="8" y="-38.3" font-family="Times,serif" font-size="14.00">ppf(data)</text>
<text text-anchor="start" x="8" y="-23.3" font-family="Times,serif" font-size="14.00">sf(data)</text>
</g>
<!-- 16&#45;&gt;0 -->
<g id="edge8" class="edge">
<title>16&#45;&gt;0</title>
<path fill="none" stroke="black" d="M84.68,-174.53C95.36,-221.96 108.88,-282.02 119.36,-328.59"/>
<polygon fill="none" stroke="black" points="116.01,-329.62 121.62,-338.61 122.84,-328.09 116.01,-329.62"/>
</g>
<!-- 17 -->
<g id="node18" class="node">
<title>17</title>
<polygon fill="none" stroke="black" points="1963.5,-53 1963.5,-137 2210.5,-137 2210.5,-53 1963.5,-53"/>
<text text-anchor="middle" x="2087" y="-121.8" font-family="Times,serif" font-size="14.00" fill="red">InconsistentChromosomesError</text>
<polyline fill="none" stroke="black" points="1963.5,-114 2210.5,-114 "/>
<text text-anchor="start" x="1971.5" y="-98.8" font-family="Times,serif" font-size="14.00" fill="red">one_chrom</text>
<text text-anchor="start" x="1971.5" y="-83.8" font-family="Times,serif" font-size="14.00" fill="red">other_chrom</text>
<polyline fill="none" stroke="black" points="1963.5,-76 2210.5,-76 "/>
<text text-anchor="middle" x="2087" y="-60.8" font-family="Times,serif" font-size="14.00" fill="red"> </text>
</g>
<!-- 17&#45;&gt;9 -->
<g id="edge9" class="edge">
<title>17&#45;&gt;9</title>
<path fill="none" stroke="black" d="M2054.21,-137.02C2007.64,-195.28 1922.76,-301.47 1875.69,-360.35"/>
<polygon fill="none" stroke="black" points="1872.82,-358.34 1869.31,-368.33 1878.29,-362.71 1872.82,-358.34"/>
</g>
<!-- 18 -->
<g id="node19" class="node">
<title>18</title>
<polygon fill="none" stroke="black" points="2228.5,-53 2228.5,-137 2439.5,-137 2439.5,-53 2228.5,-53"/>
<text text-anchor="middle" x="2334" y="-121.8" font-family="Times,serif" font-size="14.00" fill="red">InconsistentGenomesError</text>
<polyline fill="none" stroke="black" points="2228.5,-114 2439.5,-114 "/>
<text text-anchor="start" x="2236.5" y="-98.8" font-family="Times,serif" font-size="14.00" fill="red">one_genome</text>
<text text-anchor="start" x="2236.5" y="-83.8" font-family="Times,serif" font-size="14.00" fill="red">other_genome</text>
<polyline fill="none" stroke="black" points="2228.5,-76 2439.5,-76 "/>
<text text-anchor="middle" x="2334" y="-60.8" font-family="Times,serif" font-size="14.00" fill="red"> </text>
</g>
<!-- 18&#45;&gt;9 -->
<g id="edge10" class="edge">
<title>18&#45;&gt;9</title>
<path fill="none" stroke="black" d="M2287.58,-137C2267.17,-154.22 2242.53,-173.93 2219,-190 2119.89,-257.7 1997.66,-323.66 1919.76,-363.69"/>
<polygon fill="none" stroke="black" points="1917.79,-360.76 1910.49,-368.44 1920.99,-366.99 1917.79,-360.76"/>
</g>
<!-- 19 -->
<g id="node20" class="node">
<title>19</title>
<polygon fill="none" stroke="black" points="152,-23 152,-167 256,-167 256,-23 152,-23"/>
<text text-anchor="middle" x="204" y="-151.8" font-family="Times,serif" font-size="14.00">KernelFitter</text>
<polyline fill="none" stroke="black" points="152,-144 256,-144 "/>
<text text-anchor="start" x="160" y="-128.8" font-family="Times,serif" font-size="14.00">data</text>
<text text-anchor="start" x="160" y="-113.8" font-family="Times,serif" font-size="14.00">estimator</text>
<polyline fill="none" stroke="black" points="152,-106 256,-106 "/>
<text text-anchor="start" x="160" y="-90.8" font-family="Times,serif" font-size="14.00">cdf(data)</text>
<text text-anchor="start" x="160" y="-75.8" font-family="Times,serif" font-size="14.00">isf(data)</text>
<text text-anchor="start" x="160" y="-60.8" font-family="Times,serif" font-size="14.00">pdf(data)</text>
<text text-anchor="start" x="160" y="-45.8" font-family="Times,serif" font-size="14.00">ppf(data)</text>
<text text-anchor="start" x="160" y="-30.8" font-family="Times,serif" font-size="14.00">sf(data)</text>
</g>
<!-- 19&#45;&gt;0 -->
<g id="edge11" class="edge">
<title>19&#45;&gt;0</title>
<path fill="none" stroke="black" d="M188.23,-167.09C177.46,-215.65 163.22,-279.83 152.33,-328.91"/>
<polygon fill="none" stroke="black" points="148.87,-328.31 150.13,-338.83 155.71,-329.83 148.87,-328.31"/>
</g>
<!-- 20 -->
<g id="node21" class="node">
<title>20</title>
<polygon fill="none" stroke="black" points="4121.5,-0.5 4121.5,-189.5 4366.5,-189.5 4366.5,-0.5 4121.5,-0.5"/>
<text text-anchor="middle" x="4244" y="-174.3" font-family="Times,serif" font-size="14.00">NonExceptionalProcessPool</text>
<polyline fill="none" stroke="black" points="4121.5,-166.5 4366.5,-166.5 "/>
<text text-anchor="start" x="4129.5" y="-151.3" font-family="Times,serif" font-size="14.00">executor : ProcessPoolExecutor</text>
<text text-anchor="start" x="4129.5" y="-136.3" font-family="Times,serif" font-size="14.00">max_workers : NoneType</text>
<text text-anchor="start" x="4129.5" y="-121.3" font-family="Times,serif" font-size="14.00">pbar</text>
<text text-anchor="start" x="4129.5" y="-106.3" font-family="Times,serif" font-size="14.00">suppress_exceptions : bool</text>
<text text-anchor="start" x="4129.5" y="-91.3" font-family="Times,serif" font-size="14.00">verbose : bool</text>
<polyline fill="none" stroke="black" points="4121.5,-83.5 4366.5,-83.5 "/>
<text text-anchor="start" x="4129.5" y="-68.3" font-family="Times,serif" font-size="14.00">map(func, iterable)</text>
<text text-anchor="start" x="4129.5" y="-53.3" font-family="Times,serif" font-size="14.00">map_async(func, iterable)</text>
<text text-anchor="start" x="4129.5" y="-38.3" font-family="Times,serif" font-size="14.00">shutdown(wait)</text>
<text text-anchor="start" x="4129.5" y="-23.3" font-family="Times,serif" font-size="14.00">starmap(func, iterable)</text>
<text text-anchor="start" x="4129.5" y="-8.3" font-family="Times,serif" font-size="14.00">starmap_async(func, iterable)</text>
</g>
<!-- 21 -->
<g id="node22" class="node">
<title>21</title>
<polygon fill="none" stroke="black" points="2458,-53 2458,-137 2682,-137 2682,-53 2458,-53"/>
<text text-anchor="middle" x="2570" y="-121.8" font-family="Times,serif" font-size="14.00" fill="red">SequenceFileNotFoundError</text>
<polyline fill="none" stroke="black" points="2458,-114 2682,-114 "/>
<text text-anchor="start" x="2466" y="-98.8" font-family="Times,serif" font-size="14.00" fill="red">file_path</text>
<text text-anchor="start" x="2466" y="-83.8" font-family="Times,serif" font-size="14.00" fill="red">instance</text>
<polyline fill="none" stroke="black" points="2458,-76 2682,-76 "/>
<text text-anchor="middle" x="2570" y="-60.8" font-family="Times,serif" font-size="14.00" fill="red"> </text>
</g>
<!-- 21&#45;&gt;9 -->
<g id="edge12" class="edge">
<title>21&#45;&gt;9</title>
<path fill="none" stroke="black" d="M2524.05,-137.03C2502.16,-155.06 2474.91,-175.41 2448,-190 2273.79,-284.47 2049.34,-350.2 1928.41,-381.55"/>
<polygon fill="none" stroke="black" points="1927.27,-378.23 1918.46,-384.12 1929.02,-385.01 1927.27,-378.23"/>
</g>
<!-- 22 -->
<g id="node23" class="node">
<title>22</title>
<polygon fill="none" stroke="black" points="2932.5,-30.5 2932.5,-159.5 3113.5,-159.5 3113.5,-30.5 2932.5,-30.5"/>
<text text-anchor="middle" x="3023" y="-144.3" font-family="Times,serif" font-size="14.00">SequencePath</text>
<polyline fill="none" stroke="black" points="2932.5,-136.5 3113.5,-136.5 "/>
<text text-anchor="start" x="2940.5" y="-121.3" font-family="Times,serif" font-size="14.00">path : NoneType, Path</text>
<polyline fill="none" stroke="black" points="2932.5,-113.5 3113.5,-113.5 "/>
<text text-anchor="start" x="2940.5" y="-98.3" font-family="Times,serif" font-size="14.00">check_correct(foreign)</text>
<text text-anchor="start" x="2940.5" y="-83.3" font-family="Times,serif" font-size="14.00">exists()</text>
<text text-anchor="start" x="2940.5" y="-68.3" font-family="Times,serif" font-size="14.00">from_dict(cls, dict_)</text>
<text text-anchor="start" x="2940.5" y="-53.3" font-family="Times,serif" font-size="14.00">open(mode)</text>
<text text-anchor="start" x="2940.5" y="-38.3" font-family="Times,serif" font-size="14.00">to_dict()</text>
</g>
<!-- 22&#45;&gt;5 -->
<g id="edge14" class="edge">
<title>22&#45;&gt;5</title>
<path fill="none" stroke="black" d="M2932.22,-123.61C2865.76,-143.35 2773.19,-169.89 2691,-190 2652.65,-199.38 2628.93,-177.38 2604,-208 2575.84,-242.59 2595.11,-285.45 2624.83,-322.12"/>
<polygon fill="black" stroke="black" points="2624.84,-322.14 2631.77,-324.14 2632.58,-331.31 2625.66,-329.3 2624.84,-322.14"/>
<text text-anchor="middle" x="2676.5" y="-211.8" font-family="Times,serif" font-size="14.00" fill="green">_sequence_file_path</text>
</g>
<!-- 22&#45;&gt;5 -->
<g id="edge15" class="edge">
<title>22&#45;&gt;5</title>
<path fill="none" stroke="black" d="M2932.27,-121.46C2884.23,-138.97 2827.39,-166.67 2789,-208 2760.39,-238.8 2742.11,-281.6 2730.67,-319.21"/>
<polygon fill="black" stroke="black" points="2730.53,-319.7 2732.7,-326.57 2727.19,-331.22 2725.01,-324.35 2730.53,-319.7"/>
<text text-anchor="middle" x="2861.5" y="-211.8" font-family="Times,serif" font-size="14.00" fill="green">_sequence_file_path</text>
</g>
<!-- 22&#45;&gt;10 -->
<g id="edge16" class="edge">
<title>22&#45;&gt;10</title>
<path fill="none" stroke="black" d="M2952.69,-159.82C2939.52,-179.15 2932.05,-201.09 2940,-223 2943.74,-233.3 2948.36,-243.43 2953.62,-253.3"/>
<polygon fill="black" stroke="black" points="2953.71,-253.45 2960.13,-256.72 2959.59,-263.91 2953.16,-260.64 2953.71,-253.45"/>
<text text-anchor="middle" x="3012.5" y="-211.8" font-family="Times,serif" font-size="14.00" fill="green">_sequence_file_path</text>
</g>
<!-- 22&#45;&gt;10 -->
<g id="edge17" class="edge">
<title>22&#45;&gt;10</title>
<path fill="none" stroke="black" d="M3065.12,-159.78C3073.2,-174.99 3080.54,-191.59 3085,-208 3088.83,-222.08 3091.51,-236.95 3093.32,-251.94"/>
<polygon fill="black" stroke="black" points="3093.33,-252.03 3097.94,-257.58 3094.59,-263.97 3089.98,-258.42 3093.33,-252.03"/>
<text text-anchor="middle" x="3160.5" y="-211.8" font-family="Times,serif" font-size="14.00" fill="green">_sequence_file_path</text>
</g>
<!-- 22&#45;&gt;12 -->
<g id="edge18" class="edge">
<title>22&#45;&gt;12</title>
<path fill="none" stroke="black" d="M3113.57,-120.22C3158.47,-137.16 3208.97,-164.7 3237,-208 3278.35,-271.86 3282.68,-456.2 3278.55,-605.31"/>
<polygon fill="black" stroke="black" points="3278.55,-605.34 3282.37,-611.46 3278.19,-617.34 3274.37,-611.22 3278.55,-605.34"/>
<text text-anchor="middle" x="3352.5" y="-399.8" font-family="Times,serif" font-size="14.00" fill="green">_sequence_file_path</text>
</g>
<!-- 22&#45;&gt;12 -->
<g id="edge19" class="edge">
<title>22&#45;&gt;12</title>
<path fill="none" stroke="black" d="M3113.71,-125.71C3229.64,-164.1 3416.59,-227.62 3426,-241 3467.53,-300.08 3446.18,-496.66 3426,-566 3422.07,-579.5 3417.16,-592.98 3411.54,-606.27"/>
<polygon fill="black" stroke="black" points="3411.48,-606.4 3412.73,-613.51 3406.65,-617.39 3405.4,-610.29 3411.48,-606.4"/>
<text text-anchor="middle" x="3522.5" y="-399.8" font-family="Times,serif" font-size="14.00" fill="green">_sequence_file_path</text>
</g>
<!-- 23 -->
<g id="node24" class="node">
<title>23</title>
<polygon fill="none" stroke="black" points="4384.5,-23 4384.5,-167 4631.5,-167 4631.5,-23 4384.5,-23"/>
<text text-anchor="middle" x="4508" y="-151.8" font-family="Times,serif" font-size="14.00">TimeoutProcessPool</text>
<polyline fill="none" stroke="black" points="4384.5,-144 4631.5,-144 "/>
<text text-anchor="start" x="4392.5" y="-128.8" font-family="Times,serif" font-size="14.00">executor</text>
<text text-anchor="start" x="4392.5" y="-113.8" font-family="Times,serif" font-size="14.00">max_workers : NoneType</text>
<text text-anchor="start" x="4392.5" y="-98.8" font-family="Times,serif" font-size="14.00">pbar</text>
<text text-anchor="start" x="4392.5" y="-83.8" font-family="Times,serif" font-size="14.00">suppress_exceptions : bool</text>
<text text-anchor="start" x="4392.5" y="-68.8" font-family="Times,serif" font-size="14.00">verbose : bool</text>
<polyline fill="none" stroke="black" points="4384.5,-61 4631.5,-61 "/>
<text text-anchor="start" x="4392.5" y="-45.8" font-family="Times,serif" font-size="14.00">map(func, iterable, timeout)</text>
<text text-anchor="start" x="4392.5" y="-30.8" font-family="Times,serif" font-size="14.00">starmap(func, iterable, timeout)</text>
</g>
</g>
</svg>
