<?xml version="1.0" encoding="UTF-8" standalone="no"?>
<!DOCTYPE svg PUBLIC "-//W3C//DTD SVG 1.1//EN"
 "http://www.w3.org/Graphics/SVG/1.1/DTD/svg11.dtd">
<!-- Generated by graphviz version 2.42.3 (20191010.1750)
 -->
<!-- Title: packages_ortho2align Pages: 1 -->
<svg width="758pt" height="188pt"
 viewBox="0.00 0.00 758.04 188.00" xmlns="http://www.w3.org/2000/svg" xmlns:xlink="http://www.w3.org/1999/xlink">
<g id="graph0" class="graph" transform="scale(1 1) rotate(0) translate(4 184)">
<title>packages_ortho2align</title>
<polygon fill="white" stroke="transparent" points="-4,4 -4,-184 754.04,-184 754.04,4 -4,4"/>
<!-- 0 -->
<g id="node1" class="node">
<title>0</title>
<polygon fill="none" stroke="black" points="249.54,-36 150.54,-36 150.54,0 249.54,0 249.54,-36"/>
<text text-anchor="middle" x="200.04" y="-14.3" font-family="Times,serif" font-size="14.00">ortho2align</text>
</g>
<!-- 1 -->
<g id="node2" class="node">
<title>1</title>
<polygon fill="none" stroke="black" points="226.04,-180 50.04,-180 50.04,-144 226.04,-144 226.04,-180"/>
<text text-anchor="middle" x="138.04" y="-158.3" font-family="Times,serif" font-size="14.00">ortho2align.alignment</text>
</g>
<!-- 0&#45;&gt;1 -->
<g id="edge1" class="edge">
<title>0&#45;&gt;1</title>
<path fill="none" stroke="black" d="M150.34,-25.76C99.12,-33.87 24.37,-49.27 7.04,-72 -2.66,-84.72 -1.9,-94.73 7.04,-108 16.35,-121.81 29.94,-132.03 44.88,-139.58"/>
<polygon fill="black" stroke="black" points="54.34,-143.95 43.37,-143.84 49.8,-141.85 45.26,-139.75 45.26,-139.75 45.26,-139.75 49.8,-141.85 47.15,-135.67 54.34,-143.95 54.34,-143.95"/>
</g>
<!-- 3 -->
<g id="node4" class="node">
<title>3</title>
<polygon fill="none" stroke="black" points="164.04,-108 16.04,-108 16.04,-72 164.04,-72 164.04,-108"/>
<text text-anchor="middle" x="90.04" y="-86.3" font-family="Times,serif" font-size="14.00">ortho2align.fitting</text>
</g>
<!-- 0&#45;&gt;3 -->
<g id="edge2" class="edge">
<title>0&#45;&gt;3</title>
<path fill="none" stroke="black" d="M173.13,-36.12C158.88,-45.19 141.19,-56.45 125.8,-66.24"/>
<polygon fill="black" stroke="black" points="117.05,-71.81 123.07,-62.64 121.27,-69.13 125.49,-66.44 125.49,-66.44 125.49,-66.44 121.27,-69.13 127.9,-70.24 117.05,-71.81 117.05,-71.81"/>
</g>
<!-- 4 -->
<g id="node5" class="node">
<title>4</title>
<polygon fill="none" stroke="black" points="395.54,-108 182.54,-108 182.54,-72 395.54,-72 395.54,-108"/>
<text text-anchor="middle" x="289.04" y="-86.3" font-family="Times,serif" font-size="14.00">ortho2align.genomicranges</text>
</g>
<!-- 0&#45;&gt;4 -->
<g id="edge3" class="edge">
<title>0&#45;&gt;4</title>
<path fill="none" stroke="black" d="M222.04,-36.3C233.25,-45.12 247.04,-55.97 259.19,-65.53"/>
<polygon fill="black" stroke="black" points="267.29,-71.9 256.65,-69.25 263.36,-68.8 259.43,-65.71 259.43,-65.71 259.43,-65.71 263.36,-68.8 262.21,-62.18 267.29,-71.9 267.29,-71.9"/>
</g>
<!-- 5 -->
<g id="node6" class="node">
<title>5</title>
<polygon fill="none" stroke="black" points="574.04,-108 414.04,-108 414.04,-72 574.04,-72 574.04,-108"/>
<text text-anchor="middle" x="494.04" y="-86.3" font-family="Times,serif" font-size="14.00">ortho2align.orthodb</text>
</g>
<!-- 0&#45;&gt;5 -->
<g id="edge4" class="edge">
<title>0&#45;&gt;5</title>
<path fill="none" stroke="black" d="M249.58,-30.8C294.09,-41.39 360.29,-57.15 412.58,-69.6"/>
<polygon fill="black" stroke="black" points="422.51,-71.97 411.74,-74.03 417.64,-70.81 412.78,-69.65 412.78,-69.65 412.78,-69.65 417.64,-70.81 413.82,-65.27 422.51,-71.97 422.51,-71.97"/>
</g>
<!-- 2 -->
<g id="node3" class="node">
<title>2</title>
<polygon fill="none" stroke="black" points="467.04,-36 289.04,-36 289.04,0 467.04,0 467.04,-36"/>
<text text-anchor="middle" x="378.04" y="-14.3" font-family="Times,serif" font-size="14.00">ortho2align.cli_scripts</text>
</g>
<!-- 2&#45;&gt;3 -->
<g id="edge5" class="edge">
<title>2&#45;&gt;3</title>
<path fill="none" stroke="black" d="M307.95,-36.03C266.4,-46.13 213.58,-58.97 170.36,-69.48"/>
<polygon fill="black" stroke="black" points="160.44,-71.89 169.09,-65.15 165.3,-70.71 170.15,-69.53 170.15,-69.53 170.15,-69.53 165.3,-70.71 171.22,-73.9 160.44,-71.89 160.44,-71.89"/>
</g>
<!-- 2&#45;&gt;4 -->
<g id="edge6" class="edge">
<title>2&#45;&gt;4</title>
<path fill="none" stroke="black" d="M356.04,-36.3C344.83,-45.12 331.04,-55.97 318.88,-65.53"/>
<polygon fill="black" stroke="black" points="310.79,-71.9 315.86,-62.18 314.72,-68.8 318.65,-65.71 318.65,-65.71 318.65,-65.71 314.72,-68.8 321.43,-69.25 310.79,-71.9 310.79,-71.9"/>
</g>
<!-- 2&#45;&gt;5 -->
<g id="edge7" class="edge">
<title>2&#45;&gt;5</title>
<path fill="none" stroke="black" d="M406.42,-36.12C421.58,-45.28 440.44,-56.66 456.78,-66.52"/>
<polygon fill="black" stroke="black" points="465.55,-71.81 454.67,-70.5 461.27,-69.23 456.99,-66.64 456.99,-66.64 456.99,-66.64 461.27,-69.23 459.32,-62.79 465.55,-71.81 465.55,-71.81"/>
</g>
<!-- 6 -->
<g id="node7" class="node">
<title>6</title>
<polygon fill="none" stroke="black" points="750.04,-108 592.04,-108 592.04,-72 750.04,-72 750.04,-108"/>
<text text-anchor="middle" x="671.04" y="-86.3" font-family="Times,serif" font-size="14.00">ortho2align.parallel</text>
</g>
<!-- 2&#45;&gt;6 -->
<g id="edge8" class="edge">
<title>2&#45;&gt;6</title>
<path fill="none" stroke="black" d="M449.34,-36.03C491.78,-46.17 545.78,-59.07 589.85,-69.6"/>
<polygon fill="black" stroke="black" points="599.67,-71.95 588.9,-74 594.81,-70.79 589.95,-69.63 589.95,-69.63 589.95,-69.63 594.81,-70.79 590.99,-65.25 599.67,-71.95 599.67,-71.95"/>
</g>
<!-- 4&#45;&gt;1 -->
<g id="edge9" class="edge">
<title>4&#45;&gt;1</title>
<path fill="none" stroke="black" d="M252.1,-108.12C231.55,-117.65 205.79,-129.59 183.95,-139.72"/>
<polygon fill="black" stroke="black" points="174.86,-143.93 182.04,-135.64 179.39,-141.83 183.93,-139.73 183.93,-139.73 183.93,-139.73 179.39,-141.83 185.82,-143.81 174.86,-143.93 174.86,-143.93"/>
</g>
</g>
</svg>
